<svg aria-hidden="true" style="position: absolute; width: 0; height: 0; overflow: hidden;" version="1.1" xmlns="http://www.w3.org/2000/svg" xmlns:xlink="http://www.w3.org/1999/xlink">
<defs>
<symbol id="icon-arrow-left" viewBox="0 0 162 32">
<path d="M0.586 14.586c-0.781 0.781-0.781 2.047 0 2.828l12.728 12.728c0.781 0.781 2.047 0.781 2.828 0s0.781-2.047 0-2.828l-11.314-11.314 11.314-11.314c0.781-0.781 0.781-2.047 0-2.828s-2.047-0.781-2.828 0l-12.728 12.728zM162 14l-160 0v4l160-0v-4z"></path>
</symbol>
<symbol id="icon-arrow-right" viewBox="0 0 162 32">
<path d="M161.414 17.414c0.781-0.781 0.781-2.047 0-2.828l-12.728-12.728c-0.781-0.781-2.047-0.781-2.828 0s-0.781 2.047 0 2.828l11.314 11.314-11.314 11.314c-0.781 0.781-0.781 2.047 0 2.828s2.047 0.781 2.828 0l12.728-12.728zM0 18l160 0v-4l-160-0v4z"></path>
</symbol>
<symbol id="icon-facebook" viewBox="0 0 33 32">
<path d="M28.253 4.618c-2.315-2.206-5.265-3.708-8.476-4.316s-6.539-0.295-9.563 0.9-5.609 3.217-7.427 5.812c-1.818 2.595-2.788 5.645-2.788 8.765 0 4.185 1.744 8.198 4.847 11.158s7.314 4.624 11.704 4.626c2.173 0 4.324-0.405 6.334-1.192 2.003-0.806 3.825-1.971 5.367-3.432 1.538-1.466 2.758-3.206 3.59-5.121s1.261-3.968 1.261-6.040c0-2.073-0.428-4.125-1.261-6.040s-2.052-3.655-3.59-5.121zM27.086 25.812c-2.383 2.282-5.511 3.722-8.868 4.083v-10.422h3.134c0.442 0 0.866-0.167 1.179-0.465s0.488-0.702 0.488-1.123c0-0.421-0.176-0.825-0.488-1.123s-0.737-0.465-1.179-0.465h-3.134v-4.353c0-0.421 0.176-0.825 0.488-1.123s0.737-0.465 1.179-0.465h2c0.442 0 0.866-0.167 1.179-0.465s0.488-0.702 0.488-1.123-0.176-0.825-0.488-1.123c-0.313-0.298-0.737-0.465-1.179-0.465h-2.834c-1.105 0-2.165 0.418-2.947 1.163s-1.221 1.755-1.221 2.809v5.147h-3.117c-0.442 0-0.866 0.167-1.179 0.465s-0.488 0.702-0.488 1.123c0 0.421 0.176 0.826 0.488 1.123s0.737 0.465 1.179 0.465h3.117v10.422c-3.095-0.337-6.002-1.592-8.308-3.588s-3.897-4.633-4.546-7.537c-0.649-2.904-0.325-5.93 0.927-8.649s3.369-4.995 6.052-6.505 5.795-2.179 8.898-1.912c3.103 0.267 6.039 1.457 8.395 3.4s4.010 4.544 4.731 7.433c0.721 2.889 0.471 5.921-0.713 8.667-0.756 1.72-1.854 3.285-3.234 4.607z"></path>
</symbol>
<symbol id="icon-instagram" viewBox="0 0 32 32">
<path stroke-width="2.2857" stroke-miterlimit="4" stroke-linecap="round" stroke-linejoin="round" d="M23.618 8.329c-0.152 0-0.297-0.060-0.404-0.167s-0.167-0.253-0.167-0.404 0.060-0.297 0.167-0.404c0.107-0.107 0.252-0.167 0.404-0.167M23.618 8.329c0.152 0 0.297-0.060 0.404-0.167s0.167-0.253 0.167-0.404-0.060-0.297-0.167-0.404c-0.107-0.107-0.252-0.167-0.404-0.167"></path>
<path stroke-width="2.2857" stroke-miterlimit="4" stroke-linecap="round" stroke-linejoin="round" d="M1.961 7.842c0-1.56 0.62-3.056 1.723-4.159s2.599-1.723 4.159-1.723h15.685c0.772 0 1.537 0.152 2.251 0.448s1.362 0.729 1.908 1.275 0.979 1.194 1.275 1.908c0.296 0.714 0.448 1.478 0.448 2.251v15.685c0 1.56-0.62 3.056-1.723 4.159s-2.599 1.723-4.159 1.723h-15.687c-1.56 0-3.056-0.62-4.159-1.723s-1.723-2.599-1.723-4.159v-15.687l0.002 0.002z"></path>
<path stroke-width="2.2857" stroke-miterlimit="4" stroke-linecap="round" stroke-linejoin="round" d="M9.856 15.684c0 0.765 0.151 1.523 0.444 2.231s0.722 1.35 1.263 1.891 1.184 0.971 1.891 1.263c0.707 0.293 1.465 0.444 2.231 0.444s1.523-0.151 2.23-0.444c0.707-0.293 1.35-0.722 1.891-1.263s0.971-1.184 1.263-1.891c0.293-0.707 0.444-1.465 0.444-2.23 0-1.546-0.614-3.028-1.707-4.121s-2.576-1.707-4.121-1.707-3.028 0.614-4.122 1.707c-1.093 1.093-1.707 2.576-1.707 4.121z"></path>
</symbol>
<symbol id="icon-location" viewBox="0 0 32 32">
<path d="M25 13c0-2.387-0.948-4.676-2.636-6.364s-3.977-2.636-6.364-2.636-4.676 0.948-6.364 2.636c-1.688 1.688-2.636 3.977-2.636 6.364 0 3.692 2.954 8.504 9 14.268 6.046-5.764 9-10.576 9-14.268zM16 30c-7.334-6.666-11-12.334-11-17 0-2.917 1.159-5.715 3.222-7.778s4.861-3.222 7.778-3.222c2.917 0 5.715 1.159 7.778 3.222s3.222 4.861 3.222 7.778c0 4.666-3.666 10.334-11 17z"></path>
<path d="M16 16c0.796 0 1.559-0.316 2.121-0.879s0.879-1.326 0.879-2.121-0.316-1.559-0.879-2.121c-0.563-0.563-1.326-0.879-2.121-0.879s-1.559 0.316-2.121 0.879c-0.563 0.563-0.879 1.326-0.879 2.121s0.316 1.559 0.879 2.121c0.563 0.563 1.326 0.879 2.121 0.879zM16 18c-1.326 0-2.598-0.527-3.536-1.464s-1.464-2.21-1.464-3.536c0-1.326 0.527-2.598 1.464-3.536s2.21-1.464 3.536-1.464c1.326 0 2.598 0.527 3.536 1.464s1.464 2.209 1.464 3.536c0 1.326-0.527 2.598-1.464 3.536s-2.209 1.464-3.536 1.464z"></path>
</symbol>
<symbol id="icon-mail" viewBox="0 0 32 32">
<path stroke-width="2.2857" stroke-miterlimit="4" stroke-linecap="round" stroke-linejoin="round" d="M29 9v14c0 0.53-0.211 1.039-0.586 1.414s-0.884 0.586-1.414 0.586h-22c-0.53 0-1.039-0.211-1.414-0.586s-0.586-0.884-0.586-1.414v-14M29 9c0-0.53-0.211-1.039-0.586-1.414s-0.884-0.586-1.414-0.586h-22c-0.53 0-1.039 0.211-1.414 0.586s-0.586 0.884-0.586 1.414M29 9l-11.862 8.212c-0.334 0.231-0.731 0.355-1.138 0.355s-0.804-0.124-1.138-0.355l-11.862-8.212"></path>
</symbol>
<symbol id="icon-telegram" viewBox="0 0 32 32">
<path d="M28.446 3.462c-0.121-0.104-0.267-0.173-0.424-0.2s-0.319-0.010-0.467 0.048l-25.332 9.914c-0.308 0.121-0.569 0.338-0.743 0.619s-0.252 0.612-0.223 0.941c0.030 0.33 0.165 0.641 0.387 0.886s0.517 0.413 0.841 0.477l6.765 1.329v7.524c0 0.349 0.104 0.69 0.3 0.979s0.472 0.513 0.796 0.644c0.323 0.13 0.679 0.161 1.020 0.089s0.653-0.246 0.895-0.497l3.33-3.454 5.198 4.556c0.317 0.281 0.726 0.436 1.15 0.436 0.185-0 0.369-0.030 0.545-0.086 0.289-0.091 0.548-0.257 0.753-0.48s0.348-0.496 0.414-0.791l5.077-22.074c0.036-0.155 0.028-0.317-0.021-0.469s-0.14-0.286-0.26-0.39zM2.756 14.671c-0.005-0.013-0.005-0.027 0-0.040 0.006-0.004 0.012-0.008 0.019-0.010l19.964-7.815-12.913 9.25-7.070-1.385zM11.18 25.171c-0.034 0.036-0.079 0.060-0.127 0.071s-0.099 0.006-0.145-0.012c-0.046-0.018-0.086-0.050-0.114-0.091s-0.043-0.089-0.044-0.139v-6.486l3.711 3.25-3.281 3.408zM22.189 26.056c-0.009 0.042-0.030 0.081-0.059 0.113s-0.067 0.055-0.108 0.067c-0.042 0.015-0.088 0.018-0.132 0.009s-0.085-0.029-0.118-0.059l-10.566-9.269 15.67-11.23-4.686 20.369z"></path>
</symbol>
<symbol id="icon-telephone" viewBox="0 0 32 32">
<path stroke-width="1.7143" stroke-miterlimit="4" stroke-linecap="round" stroke-linejoin="round" d="M20.8 19.363c-3.193 3.36-11.339-4.712-8.133-8.085 1.957-2.060-0.253-4.413-1.477-6.145-2.297-3.247-7.339 1.236-7.187 4.088 0.484 8.995 10.213 19.653 19.635 18.723 2.947-0.291 6.333-5.613 2.952-7.559-1.689-0.973-4.011-2.893-5.789-1.023"></path>
</symbol>
</defs>
</svg>
