<svg width="156" height="45" viewBox="0 0 156 45" fill="none" xmlns="http://www.w3.org/2000/svg">
<path d="M8.604 7.416H5.418V18H3.564V7.416H0.396V5.868H8.604V7.416ZM17.352 7.416H15.768V11.844H17.442C18.21 11.844 18.792 11.646 19.188 11.25C19.584 10.842 19.782 10.302 19.782 9.63C19.782 8.154 18.972 7.416 17.352 7.416ZM15.768 18H13.914V5.868H17.298C18.69 5.868 19.764 6.21 20.52 6.894C21.276 7.566 21.654 8.484 21.654 9.648C21.642 10.5 21.426 11.226 21.006 11.826C20.586 12.414 20.004 12.84 19.26 13.104L22.428 18H20.214L17.37 13.392H15.768V18ZM30.6245 12.87L30.4265 13.482H34.3145L34.1165 12.87C33.6605 11.454 33.2885 10.284 33.0005 9.36C32.7125 8.424 32.5385 7.842 32.4785 7.614L32.3885 7.272C32.2565 7.836 31.6685 9.702 30.6245 12.87ZM28.9505 18H26.9885L31.1825 5.868H33.6125L37.7525 18H35.7725L34.8185 15.03H29.9225L28.9505 18ZM48.7533 18H46.5573L42.4713 5.868H44.4513L45.9993 10.692C46.3353 11.724 46.6413 12.714 46.9173 13.662C47.1933 14.598 47.3853 15.276 47.4933 15.696L47.6733 16.344C48.0573 14.904 48.6333 13.02 49.4013 10.692L50.9673 5.868H52.9473L48.7533 18ZM65.3957 18H58.3937V5.868H65.3057V7.416H60.2477V11.16H64.7297V12.708H60.2477V16.452H65.3957V18ZM78.0618 18H71.2398V5.868H73.0938V16.362H78.0618V18ZM90.3102 18H83.4882V5.868H85.3422V16.362H90.3102V18ZM97.7167 18H95.8807V5.868H97.7167V18ZM105.937 18H104.083V5.868H106.279L109.267 10.944C109.819 11.892 110.317 12.768 110.761 13.572C111.217 14.376 111.529 14.94 111.697 15.264L111.949 15.768C111.877 14.676 111.841 13.074 111.841 10.962V5.868H113.695V18H111.499L108.493 12.942C107.953 12.03 107.455 11.172 106.999 10.368C106.555 9.552 106.243 8.964 106.063 8.604L105.793 8.082C105.889 9.282 105.937 10.896 105.937 12.924V18ZM129.673 17.01C128.629 17.766 127.321 18.144 125.749 18.144C123.853 18.144 122.323 17.586 121.159 16.47C120.007 15.354 119.431 13.836 119.431 11.916C119.431 10.056 120.013 8.55 121.177 7.398C122.353 6.234 123.841 5.652 125.641 5.652C127.045 5.652 128.221 5.922 129.169 6.462V8.37C128.137 7.722 126.985 7.398 125.713 7.398C124.417 7.398 123.367 7.812 122.563 8.64C121.771 9.468 121.375 10.56 121.375 11.916C121.375 13.308 121.765 14.406 122.545 15.21C123.337 16.014 124.423 16.416 125.803 16.416C126.523 16.416 127.207 16.284 127.855 16.02V12.672H125.389V11.07H129.673V16.884H129.655L129.673 17.01ZM11.52 31.802C12.06 31.802 12.492 31.976 12.816 32.324C13.152 32.66 13.386 33.11 13.518 33.674C13.662 34.226 13.704 34.832 13.644 35.492C13.596 36.14 13.458 36.77 13.23 37.382C13.038 37.922 12.786 38.426 12.474 38.894C12.174 39.35 11.826 39.752 11.43 40.1C11.034 40.448 10.602 40.718 10.134 40.91C9.678 41.102 9.198 41.198 8.694 41.198C8.382 41.198 8.07 41.126 7.758 40.982C7.458 40.826 7.218 40.55 7.038 40.154C6.87 39.758 6.816 39.2 6.876 38.48C6.696 38.984 6.432 39.446 6.084 39.866C5.748 40.274 5.376 40.598 4.968 40.838C4.56 41.078 4.152 41.198 3.744 41.198C3.048 41.198 2.562 40.97 2.286 40.514C2.01 40.046 1.872 39.494 1.872 38.858C1.872 38.378 1.896 37.886 1.944 37.382C1.992 36.866 2.046 36.368 2.106 35.888C2.166 35.396 2.22 34.946 2.268 34.538C2.316 34.13 2.34 33.8 2.34 33.548C2.34 33.32 2.31 33.122 2.25 32.954C2.202 32.786 2.07 32.702 1.854 32.702C1.662 32.702 1.446 32.834 1.206 33.098C0.978 33.362 0.774 33.812 0.594 34.448L0.09 34.34C0.126 34.124 0.198 33.878 0.306 33.602C0.414 33.314 0.558 33.032 0.738 32.756C0.93 32.48 1.158 32.252 1.422 32.072C1.698 31.892 2.016 31.802 2.376 31.802C2.7 31.802 2.97 31.874 3.186 32.018C3.402 32.15 3.564 32.348 3.672 32.612C3.78 32.864 3.834 33.176 3.834 33.548C3.834 33.944 3.81 34.406 3.762 34.934C3.714 35.462 3.654 36.002 3.582 36.554C3.522 37.106 3.468 37.616 3.42 38.084C3.372 38.552 3.348 38.912 3.348 39.164C3.348 39.332 3.366 39.5 3.402 39.668C3.45 39.836 3.528 39.974 3.636 40.082C3.756 40.19 3.918 40.244 4.122 40.244C4.422 40.244 4.722 40.154 5.022 39.974C5.334 39.794 5.622 39.53 5.886 39.182C6.15 38.834 6.384 38.408 6.588 37.904C6.792 37.4 6.954 36.824 7.074 36.176C7.194 35.528 7.254 34.808 7.254 34.016C7.254 33.704 7.242 33.38 7.218 33.044C7.206 32.708 7.176 32.36 7.128 32H8.676C8.7 32.096 8.718 32.234 8.73 32.414C8.742 32.582 8.748 32.714 8.748 32.81C8.748 33.41 8.718 33.986 8.658 34.538C8.598 35.09 8.526 35.618 8.442 36.122C8.37 36.626 8.304 37.106 8.244 37.562C8.184 38.018 8.154 38.45 8.154 38.858C8.154 39.206 8.214 39.524 8.334 39.812C8.454 40.1 8.718 40.25 9.126 40.262C9.474 40.262 9.816 40.184 10.152 40.028C10.488 39.86 10.806 39.626 11.106 39.326C11.418 39.026 11.694 38.678 11.934 38.282C12.174 37.874 12.372 37.436 12.528 36.968C12.6 36.728 12.666 36.416 12.726 36.032C12.786 35.636 12.804 35.234 12.78 34.826C12.768 34.406 12.696 34.028 12.564 33.692C12.444 33.356 12.234 33.128 11.934 33.008C11.862 33.164 11.76 33.278 11.628 33.35C11.496 33.422 11.352 33.458 11.196 33.458C11.04 33.458 10.872 33.398 10.692 33.278C10.524 33.146 10.44 32.948 10.44 32.684C10.44 32.552 10.47 32.42 10.53 32.288C10.602 32.144 10.716 32.03 10.872 31.946C11.04 31.85 11.256 31.802 11.52 31.802ZM18.9681 31.802C19.4721 31.802 19.8501 31.976 20.1021 32.324C20.3541 32.66 20.4801 33.11 20.4801 33.674C20.4801 34.034 20.4441 34.448 20.3721 34.916C20.3121 35.372 20.2341 35.864 20.1381 36.392C20.0421 36.92 19.9581 37.454 19.8861 37.994C19.8261 38.522 19.7961 39.038 19.7961 39.542C19.7961 39.782 19.8381 39.968 19.9221 40.1C20.0181 40.232 20.1621 40.298 20.3541 40.298C20.5581 40.298 20.7801 40.166 21.0201 39.902C21.2721 39.638 21.4881 39.188 21.6681 38.552L22.1721 38.66C22.1241 38.912 22.0401 39.188 21.9201 39.488C21.8121 39.776 21.6681 40.052 21.4881 40.316C21.3081 40.568 21.0861 40.778 20.8221 40.946C20.5701 41.114 20.2761 41.198 19.9401 41.198C19.3881 41.198 18.9801 41.054 18.7161 40.766C18.4521 40.478 18.3201 40.058 18.3201 39.506C18.3201 38.978 18.3561 38.468 18.4281 37.976C18.5001 37.472 18.5781 36.98 18.6621 36.5C18.7581 36.008 18.8421 35.516 18.9141 35.024C18.9861 34.532 19.0221 34.028 19.0221 33.512C19.0221 33.356 18.9861 33.182 18.9141 32.99C18.8541 32.798 18.7221 32.702 18.5181 32.702C18.3261 32.702 18.1041 32.834 17.8521 33.098C17.6001 33.362 17.3841 33.812 17.2041 34.448L16.7001 34.34C16.7361 34.124 16.8081 33.878 16.9161 33.602C17.0241 33.314 17.1681 33.032 17.3481 32.756C17.5401 32.48 17.7681 32.252 18.0321 32.072C18.2961 31.892 18.6081 31.802 18.9681 31.802ZM19.9941 27.914C20.2701 27.914 20.4981 28.01 20.6781 28.202C20.8581 28.382 20.9481 28.628 20.9481 28.94C20.9481 29.24 20.8521 29.486 20.6601 29.678C20.4681 29.858 20.2401 29.948 19.9761 29.948C19.7121 29.948 19.4841 29.858 19.2921 29.678C19.1121 29.486 19.0221 29.24 19.0221 28.94C19.0221 28.628 19.1181 28.382 19.3101 28.202C19.5021 28.01 19.7301 27.914 19.9941 27.914ZM28.476 29.462L28.152 32H31.014L30.96 32.684L28.08 32.72C28.032 33.224 27.972 33.746 27.9 34.286C27.84 34.814 27.786 35.342 27.738 35.87C27.69 36.398 27.648 36.908 27.612 37.4C27.576 37.88 27.558 38.318 27.558 38.714C27.558 38.942 27.57 39.182 27.594 39.434C27.63 39.674 27.708 39.878 27.828 40.046C27.948 40.202 28.14 40.28 28.404 40.28C28.524 40.28 28.668 40.256 28.836 40.208C29.016 40.16 29.214 40.046 29.43 39.866C29.646 39.686 29.868 39.404 30.096 39.02L30.564 39.326C30.216 39.938 29.838 40.406 29.43 40.73C29.034 41.042 28.548 41.198 27.972 41.198C27.504 41.198 27.132 41.102 26.856 40.91C26.592 40.706 26.4 40.442 26.28 40.118C26.16 39.794 26.1 39.446 26.1 39.074C26.1 38.618 26.118 38.066 26.154 37.418C26.19 36.758 26.244 36.032 26.316 35.24C26.388 34.436 26.472 33.602 26.568 32.738L24.966 32.756L25.02 32C25.848 32 26.46 31.778 26.856 31.334C27.252 30.89 27.564 30.266 27.792 29.462H28.476ZM41.0626 41.198C40.4986 41.198 40.1146 41.048 39.9106 40.748C39.7066 40.448 39.6046 40.022 39.6046 39.47C39.6046 39.134 39.6286 38.738 39.6766 38.282C39.7366 37.814 39.7966 37.322 39.8566 36.806C39.9286 36.29 39.9886 35.768 40.0366 35.24C40.0966 34.712 40.1266 34.214 40.1266 33.746C40.1266 33.602 40.1026 33.446 40.0546 33.278C40.0066 33.11 39.9226 32.966 39.8026 32.846C39.6826 32.714 39.5026 32.648 39.2626 32.648C38.9386 32.648 38.6146 32.798 38.2906 33.098C37.9666 33.386 37.6546 33.782 37.3546 34.286C37.0666 34.79 36.8026 35.366 36.5626 36.014C36.3346 36.65 36.1546 37.316 36.0226 38.012C35.8906 38.696 35.8246 39.374 35.8246 40.046C35.8246 40.226 35.8246 40.394 35.8246 40.55C35.8366 40.694 35.8486 40.844 35.8606 41H34.3846C34.3726 40.916 34.3666 40.844 34.3666 40.784C34.3666 40.712 34.3666 40.628 34.3666 40.532C34.3666 40.208 34.3846 39.71 34.4206 39.038C34.4566 38.366 34.5046 37.604 34.5646 36.752C34.6246 35.888 34.6906 35.006 34.7626 34.106C34.8466 33.206 34.9306 32.354 35.0146 31.55C35.0986 30.734 35.1826 30.05 35.2666 29.498C35.3146 29.186 35.3446 28.988 35.3566 28.904C35.3806 28.82 35.4046 28.7 35.4286 28.544L34.1686 28.616L34.2406 27.896C34.7686 27.896 35.1766 27.872 35.4646 27.824C35.7646 27.776 35.9926 27.716 36.1486 27.644C36.3046 27.572 36.4306 27.494 36.5266 27.41H37.0486C37.0006 27.71 36.9466 28.046 36.8866 28.418C36.8266 28.79 36.7666 29.156 36.7066 29.516C36.6466 29.876 36.5986 30.194 36.5626 30.47C36.5266 30.77 36.4786 31.16 36.4186 31.64C36.3706 32.108 36.3166 32.606 36.2566 33.134C36.2086 33.65 36.1606 34.148 36.1126 34.628C36.0766 35.108 36.0466 35.504 36.0226 35.816H36.0766C36.4846 34.724 36.8866 33.89 37.2826 33.314C37.6786 32.738 38.0686 32.342 38.4526 32.126C38.8486 31.91 39.2386 31.802 39.6226 31.802C40.3426 31.802 40.8526 32.036 41.1526 32.504C41.4526 32.96 41.6026 33.506 41.6026 34.142C41.6026 34.802 41.5606 35.48 41.4766 36.176C41.3926 36.86 41.3086 37.496 41.2246 38.084C41.1406 38.66 41.0986 39.122 41.0986 39.47C41.0986 39.686 41.1226 39.878 41.1706 40.046C41.2306 40.214 41.3686 40.298 41.5846 40.298C41.7886 40.298 42.0106 40.172 42.2506 39.92C42.5026 39.656 42.7186 39.2 42.8986 38.552L43.3486 38.678C43.3126 38.882 43.2406 39.128 43.1326 39.416C43.0246 39.704 42.8746 39.986 42.6826 40.262C42.5026 40.526 42.2746 40.748 41.9986 40.928C41.7346 41.108 41.4226 41.198 41.0626 41.198ZM57.8714 41L52.4894 28.4H56.3414L60.8774 39.308H58.6094L63.2534 28.4H66.7814L61.3814 41H57.8714ZM69.679 41V28.4H73.243V38.174H79.255V41H69.679ZM81.4364 41L86.9984 28.4H90.5084L96.0884 41H92.3804L88.0244 30.146H89.4284L85.0724 41H81.4364ZM84.4784 38.552L85.3964 35.924H91.5524L92.4704 38.552H84.4784ZM99.2587 41V28.4H105.217C106.609 28.4 107.833 28.658 108.889 29.174C109.945 29.69 110.767 30.416 111.355 31.352C111.955 32.288 112.255 33.404 112.255 34.7C112.255 35.984 111.955 37.1 111.355 38.048C110.767 38.984 109.945 39.71 108.889 40.226C107.833 40.742 106.609 41 105.217 41H99.2587ZM102.823 38.156H105.073C105.793 38.156 106.417 38.024 106.945 37.76C107.485 37.484 107.905 37.088 108.205 36.572C108.505 36.044 108.655 35.42 108.655 34.7C108.655 33.968 108.505 33.344 108.205 32.828C107.905 32.312 107.485 31.922 106.945 31.658C106.417 31.382 105.793 31.244 105.073 31.244H102.823V38.156ZM114.602 41L120.164 28.4H123.674L129.254 41H125.546L121.19 30.146H122.594L118.238 41H114.602ZM117.644 38.552L118.562 35.924H124.718L125.636 38.552H117.644Z" fill="black"/>
</svg>
